<?xml version="1.0" encoding="utf-8"?>
<!-- Generator: Adobe Illustrator 15.1.0, SVG Export Plug-In . SVG Version: 6.00 Build 0)  -->
<!DOCTYPE svg PUBLIC "-//W3C//DTD SVG 1.1//EN" "http://www.w3.org/Graphics/SVG/1.1/DTD/svg11.dtd">
<svg version="1.1" id="Layer_1" xmlns="http://www.w3.org/2000/svg" xmlns:xlink="http://www.w3.org/1999/xlink" x="0px" y="0px"
	 width="205.75px" height="30.5px" viewBox="0 0 205.75 30.5" enable-background="new 0 0 205.75 30.5" xml:space="preserve">
<polyline fill="none" stroke="#000000" points="3.034,9.334 199.25,9.334 199.25,28.76 "/>
<rect x="3.034" y="9.334" fill="#FFFFFF" stroke="#FFFFFF" stroke-width="0.25" width="196.216" height="19.77"/>
<g>
	<g>
		<path d="M12.84,25.362c-1.761,0-2.929-1.152-2.929-2.705v-0.736h1.505v0.496c0,1.089,0.496,1.648,1.44,1.648
			c0.929,0,1.409-0.56,1.409-1.376c0-0.944-0.416-1.537-1.761-2.386c-1.201-0.768-2.465-1.809-2.465-3.345
			c0-1.521,1.008-2.722,2.817-2.722c1.729,0,2.833,1.137,2.833,2.705v0.688h-1.44v-0.496c0-0.896-0.432-1.601-1.44-1.601
			c-0.833,0-1.265,0.496-1.265,1.217c0,0.944,0.432,1.44,1.969,2.433c1.553,1.009,2.257,1.905,2.257,3.281
			C15.769,24.226,14.521,25.362,12.84,25.362z"/>
		<path d="M20.053,25.362c-2.017,0-2.977-1.393-2.977-2.961v-5.219c0-1.568,0.96-2.945,2.977-2.945c2.017,0,2.897,1.249,2.897,2.802
			v1.152h-1.361v-1.12c0-0.896-0.496-1.489-1.488-1.489c-1.008,0-1.505,0.608-1.505,1.425v5.57c0,0.816,0.497,1.425,1.505,1.425
			c0.992,0,1.488-0.576,1.488-1.489v-1.12h1.361v1.152C22.95,24.098,22.07,25.362,20.053,25.362z"/>
		<path d="M28.88,25.122v-4.674h-3.025v4.674h-1.521v-10.66h1.521v4.626h3.025v-4.626h1.505v10.66H28.88z"/>
		<path d="M36.477,25.122l-0.561-2.609h-2.305l-0.561,2.609h-1.473l2.417-10.66h1.601l2.417,10.66H36.477z M34.764,16.847
			l-0.88,4.37h1.761L34.764,16.847z"/>
		<path d="M40.729,15.822v3.281h2.609v1.329h-2.609v4.689h-1.521V14.445h4.914v1.377H40.729z"/>
		<path d="M51.127,25.234c-1.201,0-1.617-0.336-1.617-1.44v-2.081c0-0.736-0.336-1.232-1.104-1.232h-1.505v4.642H45.38v-10.66h3.089
			c1.729,0,2.497,0.864,2.497,2.385v1.169c0,1.04-0.352,1.664-1.376,1.872c1.008,0.16,1.424,1.009,1.424,1.857v1.937
			c0,0.288,0.128,0.416,0.448,0.416v1.137H51.127z M49.446,16.814c0-0.608-0.256-1.04-0.977-1.04h-1.569v3.554h1.409
			c0.736,0,1.137-0.417,1.137-1.217V16.814z"/>
		<path d="M52.737,25.122v-10.66h1.521v10.66H52.737z"/>
		<path d="M58.754,25.362c-2.017,0-2.977-1.393-2.977-2.961v-5.219c0-1.568,0.96-2.945,2.977-2.945c2.017,0,2.897,1.249,2.897,2.802
			v1.152h-1.361v-1.12c0-0.896-0.496-1.489-1.488-1.489c-1.008,0-1.505,0.608-1.505,1.425v5.57c0,0.816,0.497,1.425,1.505,1.425
			c0.992,0,1.488-0.576,1.488-1.489v-1.12h1.361v1.152C61.652,24.098,60.771,25.362,58.754,25.362z"/>
		<path d="M67.406,25.122l-2.017-4.754l-0.848,1.457v3.297h-1.505v-10.66h1.505v5.186l2.897-5.186h1.617l-2.689,4.578l2.689,6.082
			H67.406z"/>
		<path d="M70.297,25.122v-1.809h1.313v1.809H70.297z"/>
		<path d="M76.029,25.362c-2.017,0-2.977-1.393-2.977-2.961v-5.219c0-1.568,0.96-2.945,2.977-2.945c2.017,0,2.897,1.249,2.897,2.802
			v1.152h-1.361v-1.12c0-0.896-0.496-1.489-1.488-1.489c-1.008,0-1.505,0.608-1.505,1.425v5.57c0,0.816,0.497,1.425,1.505,1.425
			c0.992,0,1.488-0.576,1.488-1.489v-1.12h1.361v1.152C78.926,24.098,78.046,25.362,76.029,25.362z"/>
		<path d="M83.217,25.362c-2,0-2.977-1.313-2.977-3.058v-5.025c0-1.729,0.977-3.042,2.977-3.042c2.017,0,2.978,1.313,2.978,3.042
			v5.025C86.195,24.05,85.234,25.362,83.217,25.362z M84.69,17.15c0-0.912-0.48-1.568-1.473-1.568c-0.992,0-1.457,0.656-1.457,1.568
			v5.282c0,0.913,0.464,1.569,1.457,1.569c0.993,0,1.473-0.656,1.473-1.569V17.15z"/>
		<path d="M94.315,25.122v-8.308l-0.432,2.033l-1.457,6.274h-1.489l-1.424-6.274l-0.448-2.033v8.308H87.72v-10.66h2.113l1.457,6.658
			l0.433,2.033l0.432-2.049l1.424-6.643h2.113v10.66H94.315z"/>
		<path d="M106.971,25.122h-1.473l-1.344-7.347l-1.441,7.347h-1.473l-1.873-10.66h1.537l1.121,7.875l1.505-7.875h1.376l1.377,7.875
			l1.168-7.875h1.488L106.971,25.122z"/>
		<path d="M110.148,25.122v-10.66h4.962v1.376h-3.457v3.042h2.497v1.313h-2.497v3.553h3.457v1.377H110.148z"/>
		<path d="M119.641,25.122h-3.169v-10.66h3.089c1.729,0,2.465,0.864,2.465,2.385v0.864c0,1.104-0.447,1.729-1.359,1.921
			c1.04,0.208,1.473,0.929,1.473,1.969v1.137C122.139,24.258,121.369,25.122,119.641,25.122z M120.537,16.814
			c0-0.608-0.24-1.04-0.96-1.04h-1.585v3.361h1.408c0.753,0,1.137-0.416,1.137-1.2V16.814z M120.617,21.536
			c0-0.784-0.4-1.2-1.137-1.2h-1.488v3.474h1.648c0.721,0,0.977-0.433,0.977-1.024V21.536z"/>
		<path d="M126.31,25.362c-1.761,0-2.929-1.152-2.929-2.705v-0.736h1.504v0.496c0,1.089,0.496,1.648,1.441,1.648
			c0.928,0,1.408-0.56,1.408-1.376c0-0.944-0.416-1.537-1.761-2.386c-1.2-0.768-2.465-1.809-2.465-3.345
			c0-1.521,1.009-2.722,2.817-2.722c1.729,0,2.832,1.137,2.832,2.705v0.688h-1.439v-0.496c0-0.896-0.433-1.601-1.441-1.601
			c-0.832,0-1.264,0.496-1.264,1.217c0,0.944,0.432,1.44,1.969,2.433c1.553,1.009,2.256,1.905,2.256,3.281
			C129.238,24.226,127.99,25.362,126.31,25.362z"/>
		<path d="M130.615,25.122v-10.66h1.521v10.66H130.615z"/>
		<path d="M137.069,15.854v9.268h-1.521v-9.268h-2.193v-1.393h5.891v1.393H137.069z"/>
		<path d="M140.48,25.122v-10.66h4.963v1.376h-3.457v3.042h2.496v1.313h-2.496v3.553h3.457v1.377H140.48z"/>
		<path d="M149.393,25.122v-10.66h1.505v9.283h3.377v1.377H149.393z"/>
		<path d="M160.041,25.122l-0.561-2.609h-2.305l-0.561,2.609h-1.473l2.416-10.66h1.602l2.417,10.66H160.041z M158.328,16.847
			l-0.881,4.37h1.761L158.328,16.847z"/>
		<path d="M165.507,25.362c-1.729,0-2.961-1.024-2.961-2.785v-8.115h1.521v8.115c0,0.944,0.465,1.456,1.457,1.456
			s1.456-0.512,1.456-1.456v-8.115h1.505v8.115C168.484,24.338,167.252,25.362,165.507,25.362z"/>
		<path d="M175.057,25.122l-2.642-5.187l-0.896-1.872v7.059h-1.441v-10.66h1.232l2.529,5.282l0.848,1.872v-7.154h1.441v10.66
			H175.057z"/>
		<path d="M180.631,25.362c-2.016,0-2.977-1.393-2.977-2.961v-5.219c0-1.568,0.961-2.945,2.977-2.945
			c2.018,0,2.898,1.249,2.898,2.802v1.152h-1.361v-1.12c0-0.896-0.496-1.489-1.488-1.489c-1.008,0-1.505,0.608-1.505,1.425v5.57
			c0,0.816,0.497,1.425,1.505,1.425c0.992,0,1.488-0.576,1.488-1.489v-1.12h1.361v1.152
			C183.529,24.098,182.648,25.362,180.631,25.362z"/>
		<path d="M189.459,25.122v-4.674h-3.025v4.674h-1.52v-10.66h1.52v4.626h3.025v-4.626h1.506v10.66H189.459z"/>
	</g>
</g>
<g>
	<g>
		<g>
			<polyline fill="none" stroke="#000000" points="3.034,9.334 199.25,9.334 199.25,28.76 			"/>
		</g>
		<g>
			<polygon fill="none" stroke="#FFFFFF" points="7.667,3.761 3.034,9.334 3.034,28.76 199.25,28.76 203.883,23.187 203.883,3.761 
							"/>
		</g>
		<line fill="none" stroke="#FFFFFF" x1="203.883" y1="3.761" x2="197.484" y2="11.1"/>
	</g>
</g>
</svg>
