<?xml version="1.0" encoding="utf-8"?>
<!-- Generator: Adobe Illustrator 15.1.0, SVG Export Plug-In . SVG Version: 6.00 Build 0)  -->
<!DOCTYPE svg PUBLIC "-//W3C//DTD SVG 1.1//EN" "http://www.w3.org/Graphics/SVG/1.1/DTD/svg11.dtd">
<svg version="1.1" id="Layer_1" xmlns="http://www.w3.org/2000/svg" xmlns:xlink="http://www.w3.org/1999/xlink" x="0px" y="0px"
	 width="32px" height="98.667px" viewBox="0 0 32 98.667" enable-background="new 0 0 32 98.667" xml:space="preserve">
<g>
	<g>
		<rect x="1.225" y="44.254" fill="#FFFFFF" width="20.318" height="20.318"/>
		<polyline fill="none" stroke="#000000" stroke-width="2" points="1.225,44.254 21.543,44.254 21.543,64.573 		"/>
	</g>
	<g>
		<polygon fill="none" stroke="#000000" stroke-width="2" points="10.348,34.094 1.225,44.254 1.225,64.573 21.543,64.573 
			30.666,54.413 30.666,34.094 		"/>
	</g>
	<line fill="none" stroke="#000000" stroke-width="2" x1="30.666" y1="34.094" x2="21.543" y2="44.254"/>
</g>
<g>
	<g>
		<g>
			<g>
				<polyline fill="none" stroke="#000000" stroke-width="2" points="4.202,7.775 25.558,7.775 25.558,28.093 				"/>
			</g>
			<g>
				<polygon fill="none" stroke="#000000" stroke-width="2" points="9.31,1.629 4.202,7.775 4.202,28.093 25.558,28.093 
					30.666,21.948 30.666,1.629 				"/>
			</g>
			<line fill="none" stroke="#000000" stroke-width="2" x1="30.666" y1="1.629" x2="25.558" y2="7.775"/>
		</g>
	</g>
</g>
<g>
	<g>
		<g>
			<g>
				<g>
					<polyline fill="none" stroke="#000000" stroke-width="2" points="4.202,73.914 25.558,73.914 25.558,94.232 					"/>
				</g>
				<g>
					<polygon fill="none" stroke="#000000" stroke-width="2" points="9.31,67.768 4.202,73.914 4.202,94.232 25.558,94.232 
						30.666,88.086 30.666,67.768 					"/>
				</g>
				<line fill="none" stroke="#000000" stroke-width="2" x1="30.666" y1="67.768" x2="25.558" y2="73.914"/>
			</g>
		</g>
	</g>
	<rect x="4.202" y="73.914" width="21.355" height="20.318"/>
</g>
</svg>
