<?xml version="1.0" encoding="utf-8"?>
<!-- Generator: Adobe Illustrator 15.1.0, SVG Export Plug-In . SVG Version: 6.00 Build 0)  -->
<!DOCTYPE svg PUBLIC "-//W3C//DTD SVG 1.1//EN" "http://www.w3.org/Graphics/SVG/1.1/DTD/svg11.dtd">
<svg version="1.1" id="Layer_1" xmlns="http://www.w3.org/2000/svg" xmlns:xlink="http://www.w3.org/1999/xlink" x="0px" y="0px"
	 width="37.333px" height="114px" viewBox="0 0 37.333 114" enable-background="new 0 0 37.333 114" xml:space="preserve">
<g>
	<g>
		<rect x="1.604" y="51.001" fill="#FFFFFF" width="23.999" height="23.999"/>
		<polyline fill="none" stroke="#000000" stroke-width="2" points="1.604,51.001 25.603,51.001 25.603,75 		"/>
	</g>
	<g>
		<polygon fill="none" stroke="#000000" stroke-width="2" points="12.379,39 1.604,51.001 1.604,75 25.603,75 36.378,62.999 
			36.378,39 		"/>
	</g>
	<line fill="none" stroke="#000000" stroke-width="2" x1="36.378" y1="39" x2="25.603" y2="51.001"/>
</g>
<g>
	<g>
		<g>
			<g>
				<polyline fill="none" stroke="#000000" stroke-width="2" points="5.12,8.426 30.345,8.426 30.345,32.425 				"/>
			</g>
			<g>
				<polygon fill="none" stroke="#000000" stroke-width="2" points="11.153,1.167 5.12,8.426 5.12,32.425 30.345,32.425 
					36.378,25.166 36.378,1.167 				"/>
			</g>
			<line fill="none" stroke="#000000" stroke-width="2" x1="36.378" y1="1.167" x2="30.345" y2="8.426"/>
		</g>
	</g>
</g>
<g>
	<g>
		<g>
			<g>
				<g>
					<polyline fill="none" stroke="#000000" stroke-width="2" points="5.12,85.001 30.345,85.001 30.345,109 					"/>
				</g>
				<g>
					<polygon fill="none" stroke="#000000" stroke-width="2" points="11.153,77.742 5.12,85.001 5.12,109 30.345,109 
						36.378,101.741 36.378,77.742 					"/>
				</g>
				<line fill="none" stroke="#000000" stroke-width="2" x1="36.378" y1="77.742" x2="30.345" y2="85.001"/>
			</g>
		</g>
	</g>
	<rect x="5.12" y="85.001" width="25.225" height="23.999"/>
</g>
</svg>
