<?xml version="1.0" encoding="utf-8"?>
<!-- Generator: Adobe Illustrator 15.1.0, SVG Export Plug-In . SVG Version: 6.00 Build 0)  -->
<!DOCTYPE svg PUBLIC "-//W3C//DTD SVG 1.1//EN" "http://www.w3.org/Graphics/SVG/1.1/DTD/svg11.dtd">
<svg version="1.1" id="Layer_1" xmlns="http://www.w3.org/2000/svg" xmlns:xlink="http://www.w3.org/1999/xlink" x="0px" y="0px"
	 width="136.334px" height="98.667px" viewBox="0 0 136.334 98.667" enable-background="new 0 0 136.334 98.667"
	 xml:space="preserve">
<g>
	<g>
		<rect x="0.69" y="44.269" fill="#FFFFFF" width="125.213" height="20.261"/>
		<polyline fill="none" stroke="#000000" stroke-width="2" points="0.69,44.269 125.903,44.269 125.903,64.53 		"/>
	</g>
	<g>
		<polygon fill="none" stroke="#000000" stroke-width="2" points="9.787,34.137 0.69,44.269 0.69,64.53 125.903,64.53 135,54.398 
			135,34.137 		"/>
	</g>
	<line fill="none" stroke="#000000" stroke-width="2" x1="135" y1="34.137" x2="125.903" y2="44.269"/>
</g>
<g>
	<g>
		<g>
			<g>
				<polyline fill="none" stroke="#000000" stroke-width="2" points="4.693,73.406 129.906,73.406 129.906,93.667 				"/>
			</g>
			<g>
				<polygon fill="none" stroke="#000000" stroke-width="2" points="9.787,67.278 4.693,73.406 4.693,93.667 129.906,93.667 
					135,87.539 135,67.278 				"/>
			</g>
			<line fill="none" stroke="#000000" stroke-width="2" x1="135" y1="67.278" x2="129.906" y2="73.406"/>
		</g>
	</g>
	<rect x="4.693" y="73.406" width="125.213" height="20.261"/>
</g>
<g>
	<g>
		<polyline fill="none" stroke="#000000" stroke-width="2" points="4.693,7.757 129.906,7.757 129.906,28.019 		"/>
		<polygon fill="none" stroke="#000000" stroke-width="2" points="9.787,1.629 4.693,7.757 4.693,28.019 129.906,28.019 135,21.89 
			135,1.629 		"/>
	</g>
	<line fill="none" stroke="#000000" stroke-width="2" x1="135" y1="2.474" x2="129.906" y2="8.602"/>
</g>
</svg>
